M48
; DRILL file {KiCad 7.0.5} date Mon Apr 15 11:50:21 2024
; FORMAT={-:-/ absolute / metric / decimal}
; #@! TF.CreationDate,2024-04-15T11:50:21+04:00
; #@! TF.GenerationSoftware,Kicad,Pcbnew,7.0.5
; #@! TF.FileFunction,Plated,1,2,PTH
FMAT,2
METRIC
; #@! TA.AperFunction,Plated,PTH,ComponentDrill
T1C0.700
; #@! TA.AperFunction,Plated,PTH,ComponentDrill
T2C0.800
; #@! TA.AperFunction,Plated,PTH,ComponentDrill
T3C0.813
; #@! TA.AperFunction,Plated,PTH,ComponentDrill
T4C1.000
; #@! TA.AperFunction,Plated,PTH,ComponentDrill
T5C1.100
; #@! TA.AperFunction,Plated,PTH,ComponentDrill
T6C1.200
; #@! TA.AperFunction,Plated,PTH,ComponentDrill
T7C1.300
%
G90
G05
T1
X26.67Y139.7
X29.21Y137.16
X31.75Y139.7
X31.75Y158.75
X31.75Y161.29
X31.75Y166.37
X44.45Y139.7
X46.99Y137.16
X49.53Y139.7
X88.9Y127.0
X91.44Y129.54
X93.98Y127.0
X101.6Y127.0
X104.14Y129.54
X106.68Y127.0
T2
X22.86Y152.4
X31.75Y118.11
X31.75Y133.35
X38.1Y118.11
X38.1Y133.35
X38.1Y152.4
X41.91Y152.4
X41.91Y158.75
X41.91Y165.1
X41.91Y171.45
X41.91Y177.8
X57.15Y120.65
X57.15Y135.89
X57.15Y152.4
X57.15Y158.75
X57.15Y165.1
X57.15Y171.45
X57.15Y177.8
X60.96Y177.8
X62.225Y120.65
X62.225Y123.19
X62.225Y125.73
X62.225Y128.27
X62.225Y130.81
X62.225Y133.35
X62.225Y135.89
X62.225Y138.43
X62.225Y140.97
X62.225Y143.51
X62.225Y146.05
X62.225Y148.59
X62.225Y151.13
X62.225Y153.67
X62.225Y156.21
X62.225Y158.75
X62.225Y161.29
X62.225Y163.83
X62.225Y166.37
X62.225Y168.91
X76.2Y177.8
X77.465Y120.65
X77.465Y123.19
X77.465Y125.73
X77.465Y128.27
X77.465Y130.81
X77.465Y133.35
X77.465Y135.89
X77.465Y138.43
X77.465Y140.97
X77.465Y143.51
X77.465Y146.05
X77.465Y148.59
X77.465Y151.13
X77.465Y153.67
X77.465Y156.21
X77.465Y158.75
X77.465Y161.29
X77.465Y163.83
X77.465Y166.37
X77.465Y168.91
X80.01Y165.1
X80.01Y171.45
X80.01Y177.8
X82.55Y139.7
X82.55Y144.58
X88.9Y139.7
X88.9Y146.05
X88.9Y161.29
X95.25Y146.05
X95.25Y161.29
X95.25Y165.1
X95.25Y171.45
X95.25Y177.8
X101.6Y146.05
X101.6Y161.29
X104.14Y139.7
X107.95Y139.7
X107.95Y146.05
X107.95Y161.29
X114.3Y146.05
X114.3Y161.29
X120.65Y146.05
X120.65Y161.29
X123.19Y139.7
T3
X45.72Y120.65
X45.72Y128.27
X50.8Y120.65
X50.8Y128.27
T4
X82.55Y127.0
X82.55Y134.5
X82.55Y152.4
X82.55Y159.9
X101.6Y101.6
X101.6Y116.84
X104.14Y101.6
X104.14Y116.84
X106.68Y101.6
X106.68Y116.84
X107.95Y177.8
X107.95Y185.3
X109.22Y101.6
X109.22Y116.84
X111.76Y101.6
X111.76Y116.84
X114.3Y101.6
X114.3Y116.84
T5
X102.87Y171.45
X105.41Y171.45
X107.95Y171.45
T6
X25.4Y177.8
X32.9Y177.8
X114.3Y177.8
X121.8Y177.8
T7
X63.5Y190.5
X68.58Y190.5
T0
M30
